<?xml version="1.0" encoding="utf-8"?>
<!-- Generator: Adobe Illustrator 18.0.0, SVG Export Plug-In . SVG Version: 6.00 Build 0)  -->
<!DOCTYPE svg PUBLIC "-//W3C//DTD SVG 1.0//EN" "http://www.w3.org/TR/2001/REC-SVG-20010904/DTD/svg10.dtd">
<svg version="1.0" id="Capa_1" xmlns="http://www.w3.org/2000/svg" xmlns:xlink="http://www.w3.org/1999/xlink" x="0px" y="0px"
	 viewBox="0 0 257 64" enable-background="new 0 0 257 64" xml:space="preserve">
<g>
	<g>
		<path fill="#BFCF33" d="M39.1,36.7H17.6c0,0-6.5,1.1-6.5,8.5s9.8,7.4,9.8,7.4h19.2L39.1,36.7z"/>
		<g>
			<path fill="#148DCD" d="M19.1,13.4h71.8V0H19.1C8.6,0,0,8.7,0,19.4c0,4.9,1.8,9.3,4.8,12.7c-2.8,3.4-4.6,7.7-4.6,12.5
				c0,10.7,8.6,19.3,19.1,19.3h31V50.5h-31c-3.1,0-5.7-2.7-5.7-5.9c0-3.2,2.5-5.9,5.6-5.9h26.3v0h2.9V25.3H19.3c-0.1,0-0.1,0-0.2,0
				h0c-3.1,0-5.7-2.7-5.7-5.9S15.9,13.4,19.1,13.4z"/>
			<path fill="#E40E4E" d="M63.4,13.4h27.5V0H63.4c-8,0-14.4,2.4-19,7.3c-7,7.2-7,16.9-7,18.6V64h13.4l0-25.3h28.9V25.3H50.8
				c0-1.2,0.4-5.8,3.3-8.8C56.1,14.4,59.2,13.4,63.4,13.4z"/>
			<g>
				<rect x="37.4" y="50.5" fill="#201A3E" width="13.4" height="13.4"/>
				<path fill="#201A3E" d="M44.4,7.3c-1.9,1.9-3.2,4.1-4.2,6.2h22.5c0.3,0,0.5,0,0.7,0h27.5V0H62.2C54.8,0.3,48.8,2.7,44.4,7.3z"/>
				<path fill="#201A3E" d="M37.4,25.9v12.8l9.5,0v0h3.9V25.3l-13.4,0C37.4,25.6,37.4,25.8,37.4,25.9z"/>
			</g>
		</g>
	</g>
	<g>
		<polygon fill="#201A3E" points="111.6,14.6 120.2,14.6 120.2,10.8 111.6,10.8 111.6,5.3 122.3,5.3 122.3,1.5 106.9,1.5 
			106.9,24.3 122.4,24.3 122.4,20.3 111.6,20.3 		"/>
		<path fill="#201A3E" d="M131.8,24.6c2.1,0,3.9-0.5,5.4-1.4c1.5-0.9,2.3-2.4,2.3-4.3c0-2.7-1.5-4.4-4.5-5l-3.7-0.7
			c-1.5-0.3-2.3-0.8-2.3-1.5c0-0.4,0-1.6,2.8-1.6c1.6,0,2.5,0.5,2.8,1.7l0.1,0.2l4-0.8l-0.1-0.3c-0.8-2.7-3.1-4-6.9-4
			c-2.2,0-3.9,0.5-5.1,1.6c-1.1,1.1-1.7,2.4-1.7,3.9c0,2.7,1.8,4.5,5.4,5.1l3.1,0.6c0.5,0.1,0.9,0.3,1.2,0.5
			c0.3,0.2,0.5,0.5,0.5,0.9c0,0.4,0,1.8-3.3,1.8c-1.8,0-2.9-0.6-3.4-1.8l-0.1-0.2l-4.1,0.8l0.1,0.3c0.4,1.5,1.4,2.6,2.8,3.3
			C128.5,24.3,130,24.6,131.8,24.6z"/>
		<path fill="#201A3E" d="M170.7,15.5c0,2.3-0.4,3.7-1.2,4.4c-0.8,0.7-1.6,1-2.4,1c-0.5,0-0.9-0.2-1.4-0.5c-0.5-0.3-0.7-1-0.7-2.1
			v-11h-4.5v11.8c0,1.7,0.5,3.1,1.4,4.1c1,1,2.3,1.5,3.9,1.5c2.3,0,4-1,5.1-2.9v2.6h4.1v-17h-4.4V15.5z"/>
		<rect x="199.5" y="1.5" fill="#201A3E" width="4.4" height="22.8"/>
		<path fill="#201A3E" d="M223.7,20.7v-7.4c0-1.5-0.1-2.5-0.3-3.1c-0.2-0.6-0.7-1.2-1.3-1.8c-0.6-0.5-1.4-0.9-2.2-1.1
			c-0.8-0.2-2-0.3-3.3-0.3c-2.5,0-4.4,0.5-5.7,1.4c-1.3,0.9-2.1,2.1-2.3,3.6l0,0.3l3.8,0.5l0-0.3c0.3-1.6,1.5-2.3,3.7-2.3
			c2.3,0,3.3,0.7,3.3,2.3v1c-0.3,0-0.6,0-0.8,0c-7,0-10.6,2-10.6,5.9c0,1.5,0.5,2.8,1.6,3.8c1.1,1,2.5,1.5,4.3,1.5
			c2.6,0,4.4-1,5.6-3c0.1,0.9,0.3,1.7,0.5,2.4l0.1,0.2h4.2l-0.1-0.3C223.9,22.8,223.7,21.7,223.7,20.7z M219.5,15.9v1.2
			c0,1.1-0.4,2-1.1,2.9c-0.7,0.8-1.7,1.2-3.1,1.2c-0.9,0-1.6-0.2-2.1-0.7c-0.4-0.4-0.7-0.9-0.7-1.6C212.5,17,214.9,16,219.5,15.9z"
			/>
		<path fill="#201A3E" d="M242.1,19c0-2.7-1.5-4.4-4.5-5l-3.7-0.7c-1.5-0.3-2.3-0.8-2.3-1.5c0-0.4,0-1.6,2.8-1.6
			c1.6,0,2.5,0.5,2.8,1.7l0.1,0.2l4-0.8l-0.1-0.3c-0.8-2.7-3.1-4-6.9-4c-2.2,0-3.9,0.5-5.1,1.6c-1.1,1.1-1.7,2.4-1.7,3.9
			c0,2.7,1.8,4.5,5.4,5.1l3.1,0.6c0.5,0.1,0.9,0.3,1.2,0.5c0.3,0.2,0.4,0.5,0.4,0.9c0,0.4,0,1.8-3.3,1.8c-1.8,0-2.9-0.6-3.4-1.8
			l-0.1-0.2l-4.1,0.8l0.1,0.3c0.4,1.5,1.4,2.6,2.8,3.3c1.4,0.7,3,1,4.7,1c2.1,0,3.9-0.5,5.4-1.4C241.3,22.3,242.1,20.9,242.1,19z"/>
		<path fill="#201A3E" d="M116.9,46.6c-0.9-1.4-2.4-2.1-4.3-2.1c-2.2,0-4,0.9-5.2,2.7c-1.2,1.8-1.8,3.9-1.8,6.2
			c0,2.5,0.6,4.7,1.7,6.4c1.2,1.8,2.9,2.6,5,2.6c2.1,0,3.7-0.9,4.8-2.8v2.4h4.1V39.4h-4.4V46.6z M115.8,49.2
			c0.7,0.7,1.1,1.7,1.1,2.9v2.8c0,1.2-0.4,2.1-1.2,2.8c-0.8,0.7-1.7,1.1-2.7,1.1c-2.6,0-3.8-1.7-3.8-5.2c0-1.8,0.4-3.2,1.1-4.1
			c0.7-0.9,1.6-1.3,2.8-1.3C114.2,48.2,115.1,48.5,115.8,49.2z"/>
		<rect x="143.5" y="39.4" fill="#201A3E" width="4.4" height="22.8"/>
		<path fill="#148DCD" d="M172.1,39c-2.6,0-4.2,0.5-5.1,1.6c-0.8,1-1.3,2.4-1.3,4.1v0.5h-2.5v3.4h2.5v13.6h4.2V48.6h3.8v-3.4h-3.8
			c0-1,0.1-1.5,0.1-1.7c0.1-0.3,0.2-0.5,0.6-0.7c0.3-0.2,1-0.3,1.9-0.3c0.2,0,0.5,0,1,0l0.3,0V39l-0.3,0C172.9,39,172.5,39,172.1,39
			z"/>
		<path fill="#148DCD" d="M187.4,53.3c0,2.3-0.4,3.7-1.2,4.4c-0.8,0.7-1.6,1-2.4,1c-0.5,0-0.9-0.2-1.4-0.5c-0.5-0.3-0.7-1-0.7-2.1
			v-11h-4.5v11.8c0,1.7,0.5,3.1,1.4,4.1c1,1,2.3,1.5,3.9,1.5c2.3,0,4-1,5.1-2.9v2.6h4.1v-17h-4.4V53.3z"/>
		<path fill="#148DCD" d="M204.2,58.7c-1,0-1.7-0.2-2-0.5c-0.3-0.3-0.5-1-0.5-1.9v-7.8h3.4v-3.4h-3.4v-4.6l-3.7,0.3l-0.4,4.3h-2.4
			v3.4h2.1v8.3c0,1.5,0.2,2.6,0.5,3.3c0.4,0.7,1,1.3,1.7,1.7c0.8,0.4,1.7,0.6,2.8,0.6c0.7,0,1.5-0.1,2.7-0.4l0.2,0v-3.4l-0.3,0
			C204.8,58.7,204.5,58.7,204.2,58.7z"/>
		<path fill="#148DCD" d="M219.4,53.3c0,2.3-0.4,3.7-1.2,4.4c-0.8,0.7-1.6,1-2.4,1c-0.5,0-0.9-0.2-1.4-0.5c-0.5-0.3-0.7-1-0.7-2.1
			v-11h-4.5v11.8c0,1.7,0.5,3.1,1.4,4.1c1,1,2.3,1.5,3.9,1.5c2.3,0,4-1,5.1-2.9v2.6h4.1v-17h-4.4V53.3z"/>
		<path fill="#148DCD" d="M237.5,44.6c-1,0-1.9,0.4-2.8,1.1c-0.6,0.5-1.2,1.2-1.6,2.2v-2.8h-4v17h4.4v-7.9c0-1.1,0.3-2.2,0.9-3.4
			c0.6-1.1,1.8-1.7,3.7-1.7h0.3v-4.5l-0.3,0C237.8,44.7,237.6,44.6,237.5,44.6z"/>
		<path fill="#148DCD" d="M254.6,47.2c-1.5-1.6-3.5-2.4-5.9-2.4c-2.5,0-4.6,0.8-6.1,2.5c-1.5,1.7-2.3,3.8-2.3,6.3
			c0,2.3,0.7,4.4,2.1,6.2c1.4,1.8,3.4,2.7,6.1,2.7c2.4,0,4.5-0.8,6.1-2.5c1.6-1.6,2.4-3.8,2.4-6.5C257,51,256.2,48.9,254.6,47.2z
			 M248.6,58.9c-1.4,0-2.5-0.4-3.3-1.3c-0.8-0.9-1.2-2.2-1.2-3.9c0-1.6,0.4-2.9,1.2-3.9c0.8-0.9,1.9-1.4,3.5-1.4
			c1.5,0,2.6,0.4,3.3,1.3c0.7,0.9,1.1,2.2,1.1,3.8C253.2,57.1,251.7,58.9,248.6,58.9z"/>
		<path fill="#201A3E" d="M136,56.8c-0.7,1.5-1.8,2.2-3.4,2.2c-0.9,0-1.7-0.2-2.3-0.7c-0.6-0.5-1-1-1.2-1.6
			c-0.2-0.6-0.3-1.4-0.3-2.3h11.7l0-0.7c0-2.6-0.7-4.7-2.1-6.4c-1.4-1.7-3.3-2.5-5.8-2.5c-2.6,0-4.6,0.9-6.1,2.5
			c-1.5,1.7-2.2,3.8-2.2,6.4c0,2.7,0.8,4.8,2.2,6.4c1.5,1.6,3.5,2.4,5.9,2.4c2,0,3.7-0.5,5.1-1.5c0.8-0.6,1.5-1.3,1.9-2.1L136,56.8z
			 M129.9,48.9c0.7-0.7,1.5-1,2.5-1c1,0,1.8,0.3,2.5,1c0.6,0.6,1,1.5,1,2.4h-7.1C129,50.4,129.3,49.5,129.9,48.9z"/>
		<path fill="#201A3E" d="M191,19c-0.7,1.5-1.8,2.2-3.4,2.2c-0.9,0-1.7-0.2-2.3-0.7c-0.6-0.5-1-1-1.2-1.6c-0.2-0.6-0.3-1.4-0.3-2.3
			h11.7l0-0.7c0-2.6-0.7-4.7-2.1-6.4c-1.4-1.7-3.3-2.5-5.8-2.5c-2.6,0-4.6,0.9-6.1,2.5c-1.5,1.7-2.2,3.8-2.2,6.4
			c0,2.7,0.8,4.8,2.2,6.4c1.5,1.6,3.5,2.4,5.9,2.4c2,0,3.7-0.5,5.1-1.5c0.8-0.6,1.5-1.3,1.9-2.1L191,19z M184.9,11.1
			c0.7-0.7,1.5-1,2.5-1c1,0,1.8,0.3,2.5,1c0.6,0.6,1,1.5,1,2.4h-7.1C183.9,12.5,184.3,11.7,184.9,11.1z"/>
		<path fill="#201A3E" d="M153.4,18.5c-0.6,1.6-1.6,2.5-3.1,2.5c-1.1,0-1.9-0.4-2.5-1.2c-0.6-0.9-0.9-2.1-0.9-3.7
			c0-1.5,0.3-2.8,0.9-3.9c0.6-1,1.5-1.5,2.7-1.5c1.7,0,2.6,0.9,2.9,2.6l3.7-1.6c-1-3.1-3.3-4.7-6.9-4.7c-2.5,0-4.5,0.8-6,2.5
			c-1.5,1.7-2.2,3.8-2.2,6.3c0,2.4,0.7,4.6,2,6.3c1.4,1.7,3.3,2.6,5.9,2.6c1.9,0,3.5-0.5,4.8-1.5c1-0.8,1.7-1.8,2.2-3.2L153.4,18.5z
			"/>
	</g>
</g>
</svg>
